# xmcd
#
# Track frame offsets:
#	150
#	13594
#	27251
#	41352
#	60453
#	73330
#	90350
#	105663
#	128875
#	144013
#	155367
#	178389
#
# Disc length: 2576 seconds
#
# Revision: 0
# Processed by: cddbd v1.5.2PL0 Copyright (c) Steve Scherf et al.
# Submitted via: dBpowerAMP V4.0
#
DISCID=970a0e0c
DTITLE=Andersson and Gibson -  Eartly Greetings
DYEAR=1900
DGENRE=
TTITLE0=ABC of stupidity
TTITLE1=Anything but you
TTITLE2=It´s you
TTITLE3=In the silence when you´re gone
TTITLE4=Earthly greetings
TTITLE5=Call the police
TTITLE6=Moonlit lake
TTITLE7=Beer and cheese party 
TTITLE8=Mary and John
TTITLE9=Sorry, yes I am
TTITLE10=Wings to fly
TTITLE11=Liar´s paradise
EXTD=
EXTT0=
EXTT1=
EXTT2=
EXTT3=
EXTT4=
EXTT5=
EXTT6=
EXTT7=
EXTT8=
EXTT9=
EXTT10=
EXTT11=
PLAYORDER=
